Coordinates
version=1
nRows=16
nColumns=22
inDegrees=yes

Units are S.I. units (second, meters, Newtons, ...)
If the header above contains a line with 'inDegrees', this indicates whether rotational values are in degrees (yes) or radians (no).

endheader
time	pelvis_tilt	pelvis_list	pelvis_rotation	pelvis_tx	pelvis_ty	pelvis_tz	hip_flexion_r	hip_adduction_r	hip_rotation_r	knee_angle_r	ankle_angle_r	subtalar_angle_r	hip_flexion_l	hip_adduction_l	hip_rotation_l	knee_angle_l	ankle_angle_l	subtalar_angle_l	lumbar_extension	lumbar_bending	lumbar_rotation
      3.37000000	     -8.12911404	      2.32286672	    -43.60692629	      0.10278426	      0.87741491	      0.30413916	     16.46607979	     -1.89827251	      1.10169092	    -64.33355210	     -1.40112657	      6.54078133	     18.27851571	     -2.37406417	      0.39526537	    -21.11369781	     14.39324116	     -1.35758124	      1.58778636	      1.28401362	     12.75860511
      3.38000000	     -8.10048103	      2.02764003	    -43.06912158	      0.10872425	      0.87816471	      0.30646876	     17.48480047	     -1.67242900	      0.56583733	    -65.00885589	     -0.43121953	      6.59374813	     17.58128115	     -2.31845208	      0.77836564	    -20.88994725	     14.57834188	     -1.28292477	      1.40916946	      1.49861606	     12.12927587
      3.39000000	     -8.06661944	      1.75814034	    -42.54252576	      0.11456357	      0.87883146	      0.30878301	     18.49928243	     -1.48277464	      0.05522222	    -65.53222447	      0.52349929	      6.67251810	     16.89895143	     -2.25896478	      1.15037067	    -20.65958915	     14.75851326	     -1.18505034	      1.25049832	      1.68769804	     11.53376895
      3.40000000	     -8.02176963	      1.51514228	    -42.03025789	      0.12029403	      0.87942168	      0.31107439	     19.50203139	     -1.33384151	     -0.42172509	    -65.90071045	      1.46489813	      6.75525657	     16.22760896	     -2.19008212	      1.49829571	    -20.42262212	     14.93436740	     -1.07894911	      1.10193127	      1.84686747	     10.97484666
      3.41000000	     -7.96712305	      1.29875155	    -41.53543494	      0.12591911	      0.87994578	      0.31336327	     20.48778188	     -1.22305524	     -0.86117156	    -66.10756683	      2.37020319	      6.82609841	     15.56033259	     -2.11162320	      1.83007425	    -20.16949695	     15.10738231	     -0.97335539	      0.96464321	      1.97452494	     10.45062796
      3.42000000	     -7.90226036	      1.10572722	    -41.05689312	      0.13145966	      0.88041205	      0.31566122	     21.44678416	     -1.14794992	     -1.26210122	    -66.15033194	      3.22763645	      6.86719479	     14.89065022	     -2.02359147	      2.14650416	    -19.89772988	     15.27563338	     -0.87876182	      0.83940307	      2.07488847	      9.95947794
      3.43000000	     -7.82963131	      0.93337428	    -40.59671040	      0.13691175	      0.88082901	      0.31797028	     22.37394442	     -1.10258467	     -1.62373336	    -66.02420013	      4.03069872	      6.86501703	     14.21928776	     -1.92963888	      2.44804853	    -19.61034568	     15.43488744	     -0.80647860	      0.72262795	      2.15144062	      9.50580497
      3.44000000	     -7.74969904	      0.77796311	    -40.15254438	      0.14228105	      0.88121187	      0.32029000	     23.26319593	     -1.07766302	     -1.93766499	    -65.72829785	      4.74817595	      6.81092841	     13.53864008	     -1.82988313	      2.76318698	    -19.29825045	     15.58081573	     -0.75126211	      0.61178731	      2.20868995	      9.07281235
      3.45000000	     -7.66673803	      0.63555810	    -39.72919503	      0.14756840	      0.88156504	      0.32263536	     24.10919205	     -1.06389884	     -2.20400033	    -65.25877442	      5.39136367	      6.70019998	     12.85209964	     -1.73301837	      3.08481159	    -18.96934056	     15.71339598	     -0.71937996	      0.50791488	      2.25333262	      8.66960992
      3.46000000	     -7.58295631	      0.50045881	    -39.32290123	      0.15278003	      0.88189490	      0.32500846	     24.90608199	     -1.04919220	     -2.42014379	    -64.61680153	      5.95747359	      6.53072255	     12.15853342	     -1.64447386	      3.41519444	    -18.62308131	     15.83540317	     -0.71255630	      0.41056301	      2.29064145	      8.29112348
      3.47000000	     -7.50464030	      0.36776356	    -38.93927713	      0.15791339	      0.88218954	      0.32739875	     25.65923028	     -1.02716400	     -2.59340201	    -63.81315460	      6.46055941	      6.32289208	     11.46432585	     -1.57382995	      3.74002951	    -18.26664662	     15.94928735	     -0.72994293	      0.31809264	      2.33376483	      7.94011769
      3.48000000	     -7.43986510	      0.24132861	    -38.58020208	      0.16297644	      0.88243952	      0.32981643	     26.37050348	     -0.98603258	     -2.71085239	    -62.84147331	      6.90676168	      6.10600377	     10.78003687	     -1.52204880	      4.05136769	    -17.90352706	     16.06821772	     -0.76438424	      0.24367319	      2.38474806	      7.62006741
      3.49000000	     -7.38512239	      0.11470315	    -38.23603293	      0.16797490	      0.88264354	      0.33223854	     27.03422415	     -0.92728700	     -2.78643041	    -61.71335781	      7.29741070	      5.88513124	     10.10212315	     -1.48935995	      4.35013644	    -17.53418097	     16.19840912	     -0.81219139	      0.17743321	      2.44732230	      7.32423217
      3.50000000	     -7.34387847	     -0.00596490	    -37.91157216	      0.17290591	      0.88278455	      0.33467158	     27.65690041	     -0.85624259	     -2.82468003	    -60.43319372	      7.64356744	      5.69043426	      9.44067143	     -1.47408935	      4.63117398	    -17.16695677	     16.34100837	     -0.86225403	      0.12638191	      2.51831777	      7.04712610
      3.51000000	     -7.31548454	     -0.11262779	    -37.60165374	      0.17778306	      0.88284504	      0.33709776	     28.24361200	     -0.77963224	     -2.82430684	    -59.01303878	      7.94815071	      5.54869568	      8.80863898	     -1.46437196	      4.89441021	    -16.81441374	     16.49189836	     -0.90413754	      0.09684623	      2.59245146	      6.79099546
      3.52000000	     -7.28814602	     -0.21370746	    -37.30019929	      0.18261000	      0.88284741	      0.33951859	     28.77500834	     -0.70508967	     -2.80034452	    -57.45407033	      8.20043195	      5.43739161	      8.18747540	     -1.46024747	      5.14291041	    -16.46783760	     16.65952945	     -0.94643903	      0.06929831	      2.66542828	      6.55074289
